<?xml version="1.0" encoding="iso-8859-1"?>
<!-- Generator: Adobe Illustrator 16.0.0, SVG Export Plug-In . SVG Version: 6.00 Build 0)  -->
<!DOCTYPE svg PUBLIC "-//W3C//DTD SVG 1.1//EN" "http://www.w3.org/Graphics/SVG/1.1/DTD/svg11.dtd">
<svg version="1.1" id="Capa_1" xmlns="http://www.w3.org/2000/svg" xmlns:xlink="http://www.w3.org/1999/xlink" x="0px" y="0px"
	 width="32.004px" height="32.004px" viewBox="0 0 32.004 32.004" style="enable-background:new 0 0 32.004 32.004;"
	 xml:space="preserve">
<g>
	<path d="M29.896,0.73L29.792,0H25.83l0.029,0.881c0.008,0.318-0.1,1.255-0.672,1.702c-0.348,0.271-0.856,0.358-1.515,0.267
		l0.101-0.55h1.182V0.213L7.048,0.218v2.087h1.181l0.101,0.55C7.673,2.946,7.165,2.859,6.816,2.588
		C6.245,2.141,6.138,1.204,6.145,0.886l0.03-0.881H2.212l-0.105,0.73c-0.033,0.229-0.771,5.657,2.142,9.28
		c1.407,1.751,3.415,2.761,5.958,3.021l0.531,2.221l1.06-0.006v1.364h0.909v1.135h0.681v1.646h0.579
		c0.02,1.023-0.129,4.613-3.134,6.02v0.854H9.128v5.734L22.875,32v-5.734h-1.704v-0.854c-3.005-1.405-3.154-4.995-3.134-6.02h0.579
		v-1.646h0.681v-1.135h0.909v-1.364l1.06,0.006l0.531-2.221c2.543-0.261,4.551-1.271,5.958-3.021
		C30.667,6.388,29.929,0.96,29.896,0.73z M5.582,8.954C3.7,6.62,3.65,3.194,3.731,1.709h0.791c0.125,0.672,0.44,1.585,1.233,2.212
		C6.29,4.342,6.939,4.567,7.7,4.593C7.493,4.922,7.277,5.24,7.111,5.475L8.5,6.461c0.042-0.059,0.197-0.28,0.39-0.572l0.995,5.4
		C8.047,11.004,6.603,10.222,5.582,8.954z M26.422,8.949c-1.021,1.268-2.466,2.05-4.303,2.335l0.994-5.4
		c0.193,0.292,0.349,0.514,0.391,0.572l1.389-0.986c-0.166-0.234-0.38-0.553-0.587-0.882c0.76-0.026,1.411-0.251,1.944-0.672
		c0.792-0.627,1.107-1.54,1.232-2.212h0.791C28.353,3.189,28.304,6.615,26.422,8.949z"/>
</g>
<g>
</g>
<g>
</g>
<g>
</g>
<g>
</g>
<g>
</g>
<g>
</g>
<g>
</g>
<g>
</g>
<g>
</g>
<g>
</g>
<g>
</g>
<g>
</g>
<g>
</g>
<g>
</g>
<g>
</g>
</svg>
