<?xml version="1.0" encoding="iso-8859-1"?>
<!-- Generator: Adobe Illustrator 16.0.0, SVG Export Plug-In . SVG Version: 6.00 Build 0)  -->
<!DOCTYPE svg PUBLIC "-//W3C//DTD SVG 1.1//EN" "http://www.w3.org/Graphics/SVG/1.1/DTD/svg11.dtd">
<svg version="1.1" id="Capa_1" xmlns="http://www.w3.org/2000/svg" xmlns:xlink="http://www.w3.org/1999/xlink" x="0px" y="0px"
	 width="31.081px" height="31.081px" viewBox="0 0 31.081 31.081" style="enable-background:new 0 0 31.081 31.081;"
	 xml:space="preserve">
<g>
	<path d="M31.039,2.628L24.183,2.61c0.007-0.654,0.006-1.323-0.013-2.022c-1.061,0-16.197,0-17.259,0
		C6.894,1.288,6.893,1.957,6.899,2.61L0.042,2.628c0,0-1.025,4.143,7.048,3.76C7.129,6.801,7.175,7.2,7.226,7.59
		C5.14,7.544,1.747,7.166,1.747,7.166s-0.882,3.704,6.137,3.996c0.118,0.469,0.243,0.917,0.376,1.346
		c-1.989-0.189-4.548-0.625-4.548-0.625S2.697,15.54,9.73,16.043c0.225,0.414,0.456,0.8,0.691,1.154
		c-1.83-0.067-3.902-0.25-3.902-0.25s-0.961,3.949,7.037,3.597c0.202,0.134,0.517,0.335,0.702,0.438l0.012,4.11h-1.77v0.791h-2.233
		v4.608h10.548v-4.608H18.58v-0.791h-1.769l0.011-4.11c0.187-0.104,0.5-0.305,0.703-0.438c7.998,0.354,7.037-3.597,7.037-3.597
		s-2.073,0.183-3.903,0.25c0.236-0.354,0.467-0.74,0.692-1.154c7.032-0.504,6.018-4.161,6.018-4.161s-2.558,0.436-4.548,0.625
		c0.133-0.429,0.259-0.877,0.376-1.346c7.019-0.292,6.137-3.996,6.137-3.996s-3.392,0.379-5.478,0.425
		c0.05-0.391,0.096-0.789,0.135-1.202C32.065,6.771,31.039,2.628,31.039,2.628z"/>
</g>
<g>
</g>
<g>
</g>
<g>
</g>
<g>
</g>
<g>
</g>
<g>
</g>
<g>
</g>
<g>
</g>
<g>
</g>
<g>
</g>
<g>
</g>
<g>
</g>
<g>
</g>
<g>
</g>
<g>
</g>
</svg>
