<?xml version="1.0" encoding="iso-8859-1"?>
<!-- Generator: Adobe Illustrator 16.0.0, SVG Export Plug-In . SVG Version: 6.00 Build 0)  -->
<!DOCTYPE svg PUBLIC "-//W3C//DTD SVG 1.1//EN" "http://www.w3.org/Graphics/SVG/1.1/DTD/svg11.dtd">
<svg version="1.1" id="Capa_1" xmlns="http://www.w3.org/2000/svg" xmlns:xlink="http://www.w3.org/1999/xlink" x="0px" y="0px"
	 width="32px" height="32px" viewBox="0 0 32 32" style="enable-background:new 0 0 32 32;" xml:space="preserve">
<g>
	<g>
		<path d="M18.959,18.082l0.279,0.551c0.364-0.186,8.901-4.604,9.023-10.77c0.036-1.838-0.473-3.081-1.513-3.693
			c-1.437-0.846-3.436-0.145-4.449,0.316c-0.006-0.212-0.01-0.418-0.021-0.637c-2.933,0-6.069,0-6.072,0h-0.001c0,0-0.078,0-0.207,0
			c-0.129,0-0.207,0-0.207,0h-0.001c-0.003,0-3.141,0-6.072,0C9.71,4.068,9.706,4.274,9.7,4.486C8.686,4.025,6.687,3.324,5.251,4.17
			c-1.04,0.612-1.549,1.855-1.513,3.693c0.122,6.166,8.66,10.584,9.024,10.77l0.279-0.551c0.896,1.005,1.619,1.311,1.619,1.311
			s0.316,3.795-2.037,6.176H8.126V32h7.875h7.875v-6.432h-4.498c-2.354-2.383-2.037-6.178-2.037-6.178S18.064,19.087,18.959,18.082z
			 M22.304,7.123l1.025,1.738l1.064-0.629l-1.558-2.637c0.913-0.413,2.4-0.885,3.287-0.361c0.625,0.37,0.93,1.246,0.902,2.605
			c-0.082,4.141-4.853,7.58-7.144,8.996C21.019,15.024,22.136,12.016,22.304,7.123z M4.973,7.84C4.946,6.48,5.251,5.604,5.876,5.234
			C6.763,4.711,8.25,5.182,9.163,5.595L7.606,8.232L8.67,8.861l1.026-1.738c0.168,4.893,1.286,7.901,2.42,9.713
			C9.825,15.42,5.055,11.98,4.973,7.84z M22.64,26.803v3.963H16H9.36v-3.963h6.641H22.64z"/>
		<path d="M22.319,3.491V2.576c0,0-4.019-0.807-4.314-1.553h0.416V0h-2.419h-2.42v1.023h0.416C13.7,1.77,9.682,2.576,9.682,2.576
			v0.915H16H22.319z"/>
	</g>
</g>
<g>
</g>
<g>
</g>
<g>
</g>
<g>
</g>
<g>
</g>
<g>
</g>
<g>
</g>
<g>
</g>
<g>
</g>
<g>
</g>
<g>
</g>
<g>
</g>
<g>
</g>
<g>
</g>
<g>
</g>
</svg>
